# xmcd
#
# Track frame offsets:
#	150
#	16697
#	34095
#	44545
#	54070
#	64505
#	73735
#	88107
#	97329
#	111365
#	117257
#	130452
#	145462
#	167722
#
# Disc length: 2380
#
# Revision: 2
# Processed by: cddbd v1.5.1PL0 Copyright (c) Steve Scherf et al.
# Submitted via: audiograbber 1.82.02
# Normalized: r1:DSETVAR1,TDELIM( - ),TSWAP
#
DISCID=c8094a0e
DTITLE=Various Artist - Country Christmas
DYEAR=1900
DGENRE=Christmas
TTITLE0=Alabama - Christmas In Dixie
TTITLE1=Dolly Parton - Hard Candy Christmas
TTITLE2=Waylon Jennings - Silent Night, Holy Night
TTITLE3=Charley Pride - Christmas In My Home Town
TTITLE4=Jim Reeves - O Little Town Of Bethlehem
TTITLE5=Eddy Arnold - Up On The Housetop
TTITLE6=Don Williams - O Come, All Ye Faithful
TTITLE7=Chet Atkins - Jingle Bells
TTITLE8=John Anderson - What Child Is This
TTITLE9=Lorne Greene - We Wish You A Merry Christmas
TTITLE10=The Oak Ridge Boys - Go Tell It On The Mountain
TTITLE11=The Blackwood Brothers Quartet - O Holy Night
TTITLE12=Lorrie Morgan - Ave Maria
TTITLE13=Dottie West - The Lord's Prayer
EXTD=
EXTT0=
EXTT1=
EXTT2=
EXTT3=
EXTT4=
EXTT5=
EXTT6=
EXTT7=
EXTT8=
EXTT9=
EXTT10=
EXTT11=
EXTT12=
EXTT13=
PLAYORDER=
